<svg width="40" height="40" viewBox="0 0 40 40" fill="none" xmlns="http://www.w3.org/2000/svg">
<g clip-path="url(#clip0_45002_1343)">
<path fill-rule="evenodd" clip-rule="evenodd" d="M29.5449 6.78952L38.0548 15.2896C40.6485 17.8805 40.6485 22.1195 38.0548 24.7104L24.692 38.0567C23.0969 39.6501 20.8773 40.2638 18.8008 39.8973C21.9789 38.7571 24.7826 36.121 26.8472 33.0104C29.3803 29.1963 30.8078 24.6589 30.459 21.2932C30.1805 18.6087 29.1443 17.9004 26.8257 16.3155L26.6771 16.2137L19.8841 11.1495C19.1061 10.6172 18.1657 10.0509 17.2018 9.76594C16.6114 9.59209 16.0128 9.52302 15.436 9.62837C18.0906 7.6984 24.2953 6.01931 29.5449 6.78952Z" fill="#55B4DF"/>
<path fill-rule="evenodd" clip-rule="evenodd" d="M1.63019 15.5732L15.2594 1.94307C17.854 -0.64769 22.0974 -0.64769 24.6918 1.94307L29.544 6.79002C28.4975 6.59969 27.4229 6.48749 26.3466 6.44824C21.7677 6.28068 17.147 7.431 14.4551 9.4852C14.2035 9.67683 13.9807 9.8629 13.7833 10.0473C13.7557 10.0656 13.7277 10.0841 13.7001 10.1038L13.7099 10.1169C12.2894 11.4792 12.224 12.7436 12.0994 15.1766C12.0994 15.1766 11.9348 25.8909 12.183 26.859C12.3532 27.5211 12.6366 28.1272 13.0928 28.591C12.9619 28.5444 12.8266 28.4938 12.6865 28.4361C8.72775 26.6196 2.94352 20.7836 1.63019 15.5732Z" fill="#4888A6"/>
<path d="M29.5619 21.6212C29.5411 21.4194 29.4555 20.8856 29.439 20.8064C29.3259 21.4559 28.9859 22.0286 28.5262 22.5299C27.7985 23.3224 27.3814 23.6304 26.4842 24.0959L18.3647 28.3134C15.8724 29.6083 14.7585 30.1878 12.257 29.1685C9.12056 27.8892 3.09739 21.7462 1.67803 15.563C-0.645005 18.1708 -0.556211 22.2013 1.94533 24.7004L15.2031 37.9428L15.307 38.0467C15.7035 38.4427 16.1392 38.7756 16.6002 39.0502C17.1105 39.3538 18.1875 39.7737 18.8483 39.8871C22.166 38.8902 24.4716 36.0401 26.6134 32.8139C29.1062 29.061 29.9033 24.9133 29.5619 21.6212Z" fill="#4888A6"/>
<g opacity="0.6">
<path fill-rule="evenodd" clip-rule="evenodd" d="M20.0663 10.906L24.6866 14.3505C24.7826 14.3492 24.8779 14.3431 24.9743 14.3431C30.6251 14.3431 35.82 16.6211 39.6866 20.2885C39.7643 18.5657 39.1533 16.8176 37.8394 15.5049L29.4013 7.07626C28.5795 6.96091 27.7061 6.9024 26.803 6.9024C22.7393 6.9024 18.8023 8.03847 16.5137 9.3082C16.7644 9.3406 17.0233 9.39615 17.2884 9.47409C18.3713 9.79477 19.3868 10.4407 20.0663 10.906Z" fill="#4888A6"/>
</g>
<g opacity="0.6">
<path fill-rule="evenodd" clip-rule="evenodd" d="M11.7517 18.9967C11.766 17.1332 11.789 15.5689 11.7953 15.1609C11.9158 12.8082 11.9844 11.4657 13.3077 10.0884L13.2688 10.0366L13.5239 9.85585C13.5472 9.83919 13.5708 9.82327 13.5941 9.8079C13.7939 9.62257 14.0155 9.43779 14.2705 9.24357C16.7889 7.32175 21.0782 6.12811 25.4647 6.12811C25.7624 6.12811 26.0601 6.13348 26.3578 6.14422C27.1397 6.17273 27.9123 6.2392 28.6655 6.34214L24.4767 2.15801C23.2796 0.96252 21.681 0.304138 19.976 0.304138C18.2708 0.304138 16.6723 0.96252 15.475 2.15801L1.96912 15.665C2.72023 18.4461 4.78672 21.4768 7.17296 23.9233C8.43588 22.0561 9.98592 20.3944 11.7517 18.9967Z" fill="#4888A6"/>
</g>
<g opacity="0.6">
<path d="M6.53144 24.9347C4.37987 22.498 2.40088 19.3888 1.53132 16.2263C-0.310685 18.7267 -0.0784161 22.2482 2.16046 24.4852L5.20365 27.5247C5.58718 26.6291 6.03373 25.7654 6.53144 24.9347Z" fill="#55CAFF"/>
</g>
</g>
<defs>
<clipPath id="clip0_45002_1343">
<rect width="40" height="40" fill="white"/>
</clipPath>
</defs>
</svg>
