<svg width="47" height="49" viewBox="0 0 47 49" fill="none" xmlns="http://www.w3.org/2000/svg">
<path fill-rule="evenodd" clip-rule="evenodd" d="M5.76562 10.6504C5.38334 10.6504 5.01671 10.8107 4.7464 11.096C4.47608 11.3814 4.32422 11.7684 4.32422 12.1719V36.5156C4.32422 36.9191 4.47608 37.3061 4.7464 37.5915C5.01671 37.8768 5.38334 38.0371 5.76562 38.0371H28.8281C29.2104 38.0371 29.577 37.8768 29.8474 37.5915C30.1177 37.3061 30.2695 36.9191 30.2695 36.5156V12.1719C30.2695 11.7684 30.1177 11.3814 29.8474 11.096C29.577 10.8107 29.2104 10.6504 28.8281 10.6504H5.76562ZM0 12.1719C0 10.5578 0.607448 9.0098 1.68871 7.86847C2.76998 6.72713 4.23649 6.08594 5.76562 6.08594H28.8281C30.3573 6.08594 31.8238 6.72713 32.905 7.86847C33.9863 9.0098 34.5938 10.5578 34.5938 12.1719V14.5636L40.91 11.2316C41.4594 10.9417 42.0699 10.8048 42.6835 10.8339C43.2971 10.863 43.8934 11.0573 44.4159 11.3981C44.9384 11.739 45.3697 12.2151 45.6688 12.7814C45.968 13.3477 46.125 13.9853 46.125 14.6336V34.0539C46.125 34.7022 45.968 35.3398 45.6688 35.9061C45.3697 36.4724 44.9384 36.9485 44.4159 37.2894C43.8934 37.6302 43.2971 37.8245 42.6835 37.8536C42.0699 37.8827 41.4594 37.7458 40.91 37.4559L34.5938 34.1238V36.5156C34.5938 38.1297 33.9863 39.6777 32.905 40.819C31.8238 41.9604 30.3573 42.6016 28.8281 42.6016H5.76562C4.23649 42.6016 2.76998 41.9604 1.68871 40.819C0.607448 39.6777 0 38.1297 0 36.5156V12.1719ZM34.5938 29.0178L41.8008 32.8215V15.8691L34.5938 19.6698V29.0178Z" fill="#4888A6"/>
</svg>
